<svg xmlns="http://www.w3.org/2000/svg" viewBox="0 0 1024 1024" role="img" aria-label="pcap">
  <defs>
    <linearGradient id="bg" x1="0" y1="0" x2="0" y2="1">
      <stop offset="0%"  stop-color="#0E2036"/>
      <stop offset="100%" stop-color="#081424"/>
    </linearGradient>
    <linearGradient id="accent" x1="0" y1="0" x2="1" y2="1">
      <stop offset="0%"  stop-color="#22D3EE"/>
      <stop offset="100%" stop-color="#38BDF8"/>
    </linearGradient>
  </defs>

  <!-- Background -->
  <rect width="1024" height="1024" fill="url(#bg)"/>

  <!-- Subtle grid -->
  <g stroke="#1A3556" stroke-width="1" opacity="0.45">
    <path d="M0 256 H1024 M0 512 H1024 M0 768 H1024"/>
    <path d="M256 0 V1024 M512 0 V1024 M768 0 V1024"/>
  </g>

  <!-- Terminal prompt chevron (large-size decoration) -->
  <path d="M104 360 L184 440 L104 520"
        fill="none" stroke="url(#accent)" stroke-width="26"
        stroke-linecap="round" stroke-linejoin="round" opacity="0.85"/>

  <!-- Wordmark "pcap" (outlined glyphs, font-independent) -->
  <g fill="#E6F6FB">
    <g transform="translate(152.00 560.00) scale(0.3 -0.3)"><path d="M77 -180V550H199V449Q214 501 253.0 530.5Q292 560 350 560Q403 560 443.5 534.0Q484 508 506.5 460.5Q529 413 529 350V201Q529 106 480.0 48.0Q431 -10 350 -10Q292 -10 252.5 20.0Q213 50 198 104L202 -26V-180ZM303 98Q351 98 377.5 124.0Q404 150 404 204V346Q404 400 377.5 426.0Q351 452 303 452Q255 452 228.5 423.0Q202 394 202 341V209Q202 156 228.5 127.0Q255 98 303 98Z"/></g>
    <g transform="translate(332.00 560.00) scale(0.3 -0.3)"><path d="M309 -10Q238 -10 185.5 16.5Q133 43 104.0 91.5Q75 140 75 206V344Q75 410 104.0 458.5Q133 507 185.5 533.5Q238 560 309 560Q412 560 474.5 506.5Q537 453 540 361H417Q414 404 384.5 427.5Q355 451 309 451Q258 451 229.0 423.5Q200 396 200 345V206Q200 155 229.0 127.0Q258 99 309 99Q356 99 385.0 122.5Q414 146 417 189H540Q537 97 474.5 43.5Q412 -10 309 -10Z"/></g>
    <g transform="translate(512.00 560.00) scale(0.3 -0.3)"><path d="M239 -10Q155 -10 106.5 37.5Q58 85 58 162Q58 242 113.0 289.5Q168 337 264 337H398V376Q398 459 301 459Q257 459 231.0 442.0Q205 425 202 394H82Q86 468 144.5 514.0Q203 560 302 560Q407 560 465.0 511.0Q523 462 523 373V0H401V103Q394 50 351.0 20.0Q308 -10 239 -10ZM279 92Q334 92 366.0 119.0Q398 146 398 191V256H270Q229 256 205.0 233.0Q181 210 181 174Q181 137 206.5 114.5Q232 92 279 92Z"/></g>
    <g transform="translate(692.00 560.00) scale(0.3 -0.3)"><path d="M77 -180V550H199V449Q214 501 253.0 530.5Q292 560 350 560Q403 560 443.5 534.0Q484 508 506.5 460.5Q529 413 529 350V201Q529 106 480.0 48.0Q431 -10 350 -10Q292 -10 252.5 20.0Q213 50 198 104L202 -26V-180ZM303 98Q351 98 377.5 124.0Q404 150 404 204V346Q404 400 377.5 426.0Q351 452 303 452Q255 452 228.5 423.0Q202 394 202 341V209Q202 156 228.5 127.0Q255 98 303 98Z"/></g>
  </g>

  <!-- Status bar -->
  <rect x="152" y="712" width="720" height="12" rx="6" fill="#1E3A5F"/>
  <rect x="152" y="712" width="260" height="12" rx="6" fill="url(#accent)"/>
</svg>
